<svg width="281.0715123181903" height="304.920004272461" viewBox="0 0 330 358" class="looka-1j8o68f"><defs id="SvgjsDefs2044"></defs><g id="SvgjsG2045" featurekey="rootContainer" transform="matrix(1,0,0,1,0,0)" fill="#eafff7">    <path xmlns="http://www.w3.org/2000/svg" fill-rule="nonzero" d="             M0,0             H330             V358             H0,0             z             M4,4             v350             h322             v-350             z     "></path></g><g id="SvgjsG2046" featurekey="symbolFeature-0" transform="matrix(0.620783269405365,0,0,0.620783269405365,4.5157921791407745,-53.44232439157523)" fill="#49beb7"><g xmlns="http://www.w3.org/2000/svg" fill=""><path d="M186.51 221.95q.86 0 .25-.61l-37.3-37.3a3.83 3.83 0 0 1 0-5.41l10.25-10.25q3.22-3.22 6.45 0l21.96 21.93q2.17 2.17.27 5.17-.04.05-.09.1a3.51 3.19-44.9 0 1-4.71.21l-20.48-20.37a.75.74-44.7 0 0-1.05 0l-5.12 5.13q-.4.39 0 .78l40.28 40.29q.36.35.86.35h18.19a.42.41 90 0 0 .41-.42q-.02-55.49.03-68.27.01-1.77-1.67-3.31-4.88-4.45-20.48-20.02-6.57-6.55-3.26-14.15c3.87-8.92 16.78-9.4 21.54-1.56 3.88 6.39 1.56 14.44-5.17 17.78a.39.39 0 0 0-.1.62q5.18 5.23 12.78 12.75 3.29 3.27 3.3 8.61.04 60.02.03 67.59a.33.33 0 0 0 .34.33q6.85-.12 21.16-.02 6.12.05 8.89 4.58 1.51 2.47 1.44 8.34-.03 2.58.01 13.3.01 3.73 4.16 4.27l.3-.03q3.64-.46 3.73-4.13.1-3.91.01-11.8-.09-6.93 1.07-9.19 2.7-5.26 8.99-5.32 11.33-.12 21.38 0a.51.5-89.4 0 0 .51-.51q-.04-22.31.01-66.91.01-5.89 4.28-10.04 2.4-2.33 11.73-11.71.38-.39-.08-.67c-14.09-8.37-4.66-28.2 10.21-22.39 6.41 2.51 8.94 9.65 6.21 16.11q-.88 2.08-4.78 5.86-1.87 1.8-18.5 18.34c-1.55 1.53-2.14 2.19-2.13 4.55q.01 30.17-.04 66.94a.45.44 90 0 0 .44.45h18.97q.41 0 .71-.29l40.32-40.33a.45.38 45 0 0-.05-.59l-5.43-5.43a.48.47-44.6 0 0-.67 0l-20.23 20.34q-2.29 2.3-4.73-.1-.08-.07-.11-.1-2.37-2.58.1-5.07 12.78-12.86 21.39-21.58 3.5-3.55 7.07.01 1.36 1.35 10.14 10.15a3.42 3.4-45.2 0 1 0 4.81l-37.22 37.74q-.44.44.18.44h47.09q.64 0 .54-.63c-1.71-10.45 8.41-17.94 17.58-13.21 7.67 3.96 8.99 13.91 2.57 19.64q-5.24 4.68-11.23 2.76-4.12-1.32-5.26-1.32-79.49-.21-81.61-.1a.54.53-90 0 0-.51.52q-.11 2.89-.06 16.05.03 6.08-1.23 8.47c-2.29 4.37-6.27 4.96-11.24 4.95q-8.81-.01-16.38.13-3.6.07-3.48 3.7 0 .03-.02.15a3.64 3.04 4.9 0 0 3.63 3.6q7.82.12 16.49 0 5.41-.08 7.65 1.27c3.64 2.21 4.69 5.45 4.62 9.92q-.17 10.66-.01 18.7.01.55.56.55 37.43-.15 80.79 0c3.22.01 6.3-1.57 9.1-1.45 8.2.34 14.17 7.49 11.76 15.66-4.39 14.91-26.86 9.69-23.65-6.45q.13-.69-.57-.69h-44.57a.23.23 0 0 0-.16.39q16.94 16.86 33.98 33.89 3.33 3.33.16 6.55-4.59 4.65-10.47 10.3a3.8 3.8 0 0 1-5.31-.05l-22.31-22.14q-2.4-2.38.03-4.82.02-.02.1-.09 2.55-2.39 5.39.42l19.73 19.54q.24.24.49 0l5.6-5.6q.29-.29-.04-.62l-37.51-37.5a.95.91-21.2 0 0-.67-.28h-22.07a.36.36 0 0 0-.36.36q-.04 44.82.1 64.74.01 1.89 1.35 3.21 8.59 8.48 18.1 17.95 5.27 5.25 6.37 7.81 2.16 5.06-.95 10.83c-3.75 6.98-13.8 8.02-19.38 2.56q-3.89-3.8-3.55-9.68.4-6.86 7.39-10.34.73-.36.15-.94-11.6-11.46-11.62-11.47-5.01-5.04-4.94-11.16.1-9.59.02-63.45a.49.49 0 0 0-.49-.49q-15.91.1-17.86.12-6.05.06-8.77-1.51c-4.54-2.62-4.86-6.7-4.79-11.98q.09-6.45-.06-13.41-.08-3.83-4-3.96-.14-.01-.16 0-3.94.05-3.99 3.88-.08 4.99-.01 14.08.04 5.81-1.41 8.12c-2.56 4.06-5.97 4.64-10.86 4.67q-9.43.05-19.29-.03a.3.3 0 0 0-.31.3q0 27.46.06 63.9c.01 6.79-2.68 8.87-7.9 14.08q-6.49 6.49-8.58 8.56-.36.36.09.61 8.54 4.56 7.21 13.35c-1.8 11.96-17.08 13.39-22.71 4.25-2.87-4.66-1.88-11.32 1.96-15.08q9.79-9.56 21.84-21.69a3.7 3.69 67.5 0 0 1.08-2.61v-65.2a.4.39 90 0 0-.39-.4h-20.76a1.64 1.64 0 0 0-1.16.48l-37.31 37.31q-.52.52 0 1.04l4.94 4.94q.64.64 1.29-.01l19.46-19.63q2.45-2.47 5.08-.04.03.03.1.11 2.39 2.52.03 4.87-19.17 19.13-21.99 21.78-3.01 2.83-6.07-.14-5.59-5.44-10.48-10.43a3.73 3.72-44.7 0 1 .03-5.24l34.13-34.13q.89-.88-.37-.88h-42.9q-.69 0-.58.68 1.25 8.21-4.06 12.54c-4.43 3.61-11.34 3.64-15.62.08-9.95-8.28-2.51-24.25 10.42-21.42 1.5.33 2.92 1.03 5.07 1.03q41.28-.07 80.65 0a.43.42-88.7 0 0 .43-.42q.08-9.89-.04-19.9-.07-5.95 4.87-8.77 2.38-1.35 8.83-1.3 10.75.09 15.64-.04 3.14-.08 3.77-3.51.02-.15-.19-1.14-.62-2.82-3.5-2.86-11.81-.18-17.7.03-7.3.27-10.29-4.89-1.48-2.55-1.4-7.69.08-5.8.03-17.01a.53.53 0 0 0-.53-.53q-49.2.13-79.72.02-1.9-.01-2.94.5c-9.63 4.78-19.87-3.36-17.52-13.63 3.38-14.76 26.59-10.99 23.71 5.54q-.08.48.4.48zm21.89-100.97a5.95 5.95 0 0 0-5.95-5.95 5.95 5.95 0 0 0-5.95 5.95 5.95 5.95 0 0 0 5.95 5.95 5.95 5.95 0 0 0 5.95-5.95m114.43.02a5.93 5.93 0 0 0-5.93-5.93 5.93 5.93 0 0 0-5.93 5.93 5.93 5.93 0 0 0 5.93 5.93 5.93 5.93 0 0 0 5.93-5.93m-189.08 97.83a5.95 5.95 0 0 0-5.95-5.95 5.95 5.95 0 0 0-5.95 5.95 5.95 5.95 0 0 0 5.95 5.95 5.95 5.95 0 0 0 5.95-5.95m265.28-.01a5.97 5.97 0 0 0-5.97-5.97 5.97 5.97 0 0 0-5.97 5.97 5.97 5.97 0 0 0 5.97 5.97 5.97 5.97 0 0 0 5.97-5.97m-166.168 15.148a4.85 4.72 13.2 0 0-3.644-5.703 4.85 4.72 13.2 0 0-5.8 3.488 4.85 4.72 13.2 0 0 3.644 5.702 4.85 4.72 13.2 0 0 5.8-3.488m15.928-1.098a4.76 4.76 0 0 0-4.76-4.76 4.76 4.76 0 0 0-4.76 4.76 4.76 4.76 0 0 0 4.76 4.76 4.76 4.76 0 0 0 4.76-4.76m31.17.01a4.76 4.76 0 0 0-4.76-4.76 4.76 4.76 0 0 0-4.76 4.76 4.76 4.76 0 0 0 4.76 4.76 4.76 4.76 0 0 0 4.76-4.76m15.9 0a4.77 4.77 0 0 0-4.77-4.77 4.77 4.77 0 0 0-4.77 4.77 4.77 4.77 0 0 0 4.77 4.77 4.77 4.77 0 0 0 4.77-4.77m-62.917 16.049a4.9 4.71 11.4 0 0-3.872-5.586 4.9 4.71 11.4 0 0-5.734 3.649 4.9 4.71 11.4 0 0 3.872 5.585 4.9 4.71 11.4 0 0 5.734-3.648m15.989-.225a4.93 4.7 8.8 0 0-4.153-5.399 4.93 4.7 8.8 0 0-5.591 3.89 4.93 4.7 8.8 0 0 4.153 5.4 4.93 4.7 8.8 0 0 5.591-3.89m31.03-.96a4.14 4.14 0 0 0-3.978-4.296l-1.28-.05a4.14 4.14 0 0 0-4.295 3.979l-.03.8a4.14 4.14 0 0 0 3.977 4.295l1.28.05a4.14 4.14 0 0 0 4.295-3.979zm15.904-.06a4.2 4.2 0 0 0-4.126-4.273l-1.12-.02a4.2 4.2 0 0 0-4.272 4.126l-.014.8a4.2 4.2 0 0 0 4.126 4.272l1.12.02a4.2 4.2 0 0 0 4.272-4.126zM264.12 262.81a4.43 4.43 0 0 0-4.43-4.43 4.43 4.43 0 0 0-4.43 4.43 4.43 4.43 0 0 0 4.43 4.43 4.43 4.43 0 0 0 4.43-4.43m-31.2 15.08a4.75 4.75 0 0 0-4.75-4.75 4.75 4.75 0 0 0-4.75 4.75 4.75 4.75 0 0 0 4.75 4.75 4.75 4.75 0 0 0 4.75-4.75m15.9-.04a4.77 4.77 0 0 0-4.77-4.77 4.77 4.77 0 0 0-4.77 4.77 4.77 4.77 0 0 0 4.77 4.77 4.77 4.77 0 0 0 4.77-4.77m31.11.02a4.74 4.74 0 0 0-4.74-4.74 4.74 4.74 0 0 0-4.74 4.74 4.74 4.74 0 0 0 4.74 4.74 4.74 4.74 0 0 0 4.74-4.74m15.92.01a4.74 4.74 0 0 0-4.74-4.74 4.74 4.74 0 0 0-4.74 4.74 4.74 4.74 0 0 0 4.74 4.74 4.74 4.74 0 0 0 4.74-4.74m-62.92 15.2a4.82 4.82 0 0 0-4.82-4.82 4.82 4.82 0 0 0-4.82 4.82 4.82 4.82 0 0 0 4.82 4.82 4.82 4.82 0 0 0 4.82-4.82m15.87-.01a4.81 4.81 0 0 0-4.81-4.81 4.81 4.81 0 0 0-4.81 4.81 4.81 4.81 0 0 0 4.81 4.81 4.81 4.81 0 0 0 4.81-4.81m31.16.02a4.79 4.79 0 0 0-4.79-4.79 4.79 4.79 0 0 0-4.79 4.79 4.79 4.79 0 0 0 4.79 4.79 4.79 4.79 0 0 0 4.79-4.79m15.9-.02a4.79 4.79 0 0 0-4.79-4.79 4.79 4.79 0 0 0-4.79 4.79 4.79 4.79 0 0 0 4.79 4.79 4.79 4.79 0 0 0 4.79-4.79m-162.12 14.88a5.98 5.98 0 0 0-5.98-5.98 5.98 5.98 0 0 0-5.98 5.98 5.98 5.98 0 0 0 5.98 5.98 5.98 5.98 0 0 0 5.98-5.98m265.29-.02a5.99 5.99 0 0 0-5.99-5.99 5.99 5.99 0 0 0-5.99 5.99 5.99 5.99 0 0 0 5.99 5.99 5.99 5.99 0 0 0 5.99-5.99m-190.65 95.01a6 6 0 0 0-6-6 6 6 0 0 0-6 6 6 6 0 0 0 6 6 6 6 0 0 0 6-6m114.53 0a5.97 5.97 0 0 0-5.97-5.97 5.97 5.97 0 0 0-5.97 5.97 5.97 5.97 0 0 0 5.97 5.97 5.97 5.97 0 0 0 5.97-5.97"></path><path d="M263.53 132.29a.48.48 0 0 0-.35.46v61.63a3.25 3.24 82.6 0 1-2.41 3.14q-.82.22-.97.21-3.62-.32-3.62-3.48l-.02-61.27a.96.95 10.8 0 0-.61-.89c-8.38-3.27-10.5-14.12-3.77-20.26 5.88-5.37 15.56-3.69 19.26 3.63 3.34 6.58-.3 14.76-7.51 16.83m2.105-13.125a5.9 5.77-16.9 0 0-7.322-3.806 5.9 5.77-16.9 0 0-3.968 7.236 5.9 5.77-16.9 0 0 7.322 3.806 5.9 5.77-16.9 0 0 3.968-7.236M109.73 266.54q-.55 0-.7.53-3.14 11.13-13.6 12.81c-13.59 2.19-23.25-12.24-16.99-24.12 2.62-5 8.3-8.57 13.94-8.51q12.55.13 16.41 11.85a.75.72-8.2 0 0 .69.5l77.68-.04q3.53-.01 3.52 3.38v.14q0 3.39-3.5 3.4zm-6.76-2.84a10.05 10.05 0 0 0-10.05-10.05 10.05 10.05 0 0 0-10.05 10.05 10.05 10.05 0 0 0 10.05 10.05 10.05 10.05 0 0 0 10.05-10.05M410.7 266.67l-78.45.09q-3.54 0-3.55-3.43v-.14q-.02-3.44 3.56-3.44l78.68-.11a.75.73 8.1 0 0 .7-.51q3.89-11.88 16.6-12.04c5.71-.07 11.47 3.54 14.14 8.6 6.36 12.02-3.39 26.65-17.16 24.46q-10.6-1.68-13.81-12.95-.15-.53-.71-.53m27.26-2.97a10.14 10.14 0 0 0-10.14-10.14 10.14 10.14 0 0 0-10.14 10.14 10.14 10.14 0 0 0 10.14 10.14 10.14 10.14 0 0 0 10.14-10.14"></path><circle cx="427.88" cy="263.65" r="4.29"></circle><path d="M259.57 327.69q3.43-.01 3.46 4.81.34 53.98.35 58.16 0 .59.56.8c12.91 4.9 9.8 23.56-3.98 23.62-13.77.07-17.05-18.56-4.19-23.58q.56-.22.56-.81-.03-4.18-.18-58.16-.01-4.82 3.42-4.84m6.34 75.36a5.9 5.9 0 0 0-5.9-5.9 5.9 5.9 0 0 0-5.9 5.9 5.9 5.9 0 0 0 5.9 5.9 5.9 5.9 0 0 0 5.9-5.9"></path></g></g><g id="SvgjsG2047" featurekey="nameFeature-0" transform="matrix(2.1008810997009277,0,0,2.1008810997009277,15.907542859323046,199.965920865987)" fill="#eafff7"><path d="M0.52 40 c0 0 1.88 -2.4 1.88 -4.76 l0 -18.48 c0 -2.36 -1.88 -4.76 -1.88 -4.76 l12.4 0 c6.6 0 12.24 2.68 12.24 8.88 c0 4.16 -2.08 6.84 -5.2 8.4 c-1.8 0.88 -3.92 1.36 -6.24 1.56 c-0.72 0.08 -2.6 0.08 -3.32 0.08 l0 4.32 c0 2.36 1.88 4.76 1.88 4.76 l-11.76 0 z M10.4 25.6 l1.44 0 c2.84 0 4.96 -1.36 4.96 -3.92 c0 -3 -2.44 -3.96 -5.28 -3.96 l-1.12 0 l0 7.88 z M25.97121 40 c0 0 1.9932 -1.5804 3.0424 -4.7728 l6.0636 -18.454 c0.9864 -3.0024 0.41404 -4.7736 0.41404 -4.7736 l12.709 0 s-0.5724 1.7712 0.41404 4.7736 l0 0 l6.0636 18.454 c1.0492 3.1924 3.0424 4.7724 3.0424 4.7724 l-11.749 0 s1.4008 -1.644 0.51436 -4.72 l-9.28 0 c-0.8864 3.076 0.51436 4.72 0.51436 4.72 l-11.749 0 z M38.846000000000004 29.48 l6 0 l-3 -10.48 z M81.8 40.56 c-5.2 0 -10 -3.4 -10.76 -9.68 c-0.76 0.04 -2.6 0.08 -3.32 0.08 l0 4.28 c0 2.36 1.88 4.76 1.88 4.76 l-11.76 0 s1.88 -2.4 1.88 -4.76 l0 -18.48 c0 -2.36 -1.88 -4.76 -1.88 -4.76 l12.4 0 c6.6 0 12.24 2.72 12.24 8.92 c0 4.16 -2.08 6.84 -5.2 8.36 c0.12 3.44 3.76 4.36 6.4 2.64 l0 8.48 c-0.6 0.12 -1.24 0.16 -1.88 0.16 z M67.72 25.64 l1.4 0 c2.84 0 5 -1.4 5 -3.96 c0 -2.96 -2.44 -3.96 -5.28 -3.96 l-1.12 0 l0 7.92 z M83.69121 40 c0 0 1.9932 -1.5804 3.0424 -4.7728 l6.0636 -18.454 c0.9864 -3.0024 0.41404 -4.7736 0.41404 -4.7736 l12.709 0 s-0.5724 1.7712 0.41404 4.7736 l0 0 l6.0636 18.454 c1.0492 3.1924 3.0424 4.7724 3.0424 4.7724 l-11.749 0 s1.4008 -1.644 0.51436 -4.72 l-9.28 0 c-0.8864 3.076 0.51436 4.72 0.51436 4.72 l-11.749 0 z M96.566 29.48 l6 0 l-3 -10.48 z M129.16 40.56 c-7.2 -0.12 -13.32 -3.76 -13.32 -14.56 c0 -9.44 5.52 -14.56 12.84 -14.56 c3.6 0 9.68 1.8 9.68 1.8 l-3.0596 7.9264 s-3.0948 -3.9796 -6.5404 -3.9796 c-2.76 0 -4.68 2.7332 -4.68 8.4132 c0 7.76 2.4 9.2 5.16 9.2 c1.12 0 2.44 -0.2 3.52 -0.44 l0 -5.16 c-1.3048 0 -2.8 1.8744 -2.8 1.8744 l0 -7.0744 l11.874 0 s-1.8744 2.3868 -1.8744 4.7736 l0 7.6664 s-4.16 4.12 -10.8 4.12 z"></path></g><g id="SvgjsG2048" featurekey="nameFeature-1" transform="matrix(1.6637744903564453,0,0,1.6637744903564453,15.668980062817422,275.9664169609979)" fill="#eafff7"><path d="M9 40.64 c-3.44 0 -8.2 -1.48 -8.2 -1.48 l2.8 -7.96 s1.88 3.8 5.2 3.8 c2.68 0 4.36 -1.16 4.36 -2.92 c0 -3.2 -11.76 -3.3984 -11.76 -11.52 c0 -5.96 4.92 -9.12 11.64 -9.12 c3.32 0 7.36 1.8 7.36 1.8 l-2.76 7.52 s-2.24 -3.96 -4.8 -3.96 c-2.16 0 -3.36 1.36 -3.36 2.68 c0 3.12 12.08 3.64 12.08 11.6 c0 5.92 -5.52 9.56 -12.56 9.56 z M22.88 40 c0 0 1.88 -2.36 1.88 -4.76 l0 -18.44 c0 -2.4 -1.88 -4.8 -1.88 -4.8 l11.76 0 s-1.88 2.4 -1.88 4.8 l0 6.4 l8.4 0 l0 -6.4 c0 -2.4 -1.88 -4.8 -1.88 -4.8 l11.76 0 s-1.88 2.4 -1.88 4.8 l0 18.44 c0 2.4 1.88 4.76 1.88 4.76 l-11.76 0 s1.88 -2.36 1.88 -4.76 l0 -5.64 l-8.4 0 l0 5.64 c0 2.4 1.88 4.76 1.88 4.76 l-11.76 0 z M52.080000000000005 40 c0 0 1.88 -2.36 1.88 -4.76 l0 -18.44 c0 -2.4 -1.88 -4.8 -1.88 -4.8 l21.48 0 l0 8.28 s-2.4 -1.88 -4.8 -1.88 l-6.8 0 l0 5.2 l2.8 0 c2.4 0 4.8 -1.88 4.8 -1.88 l0 9.36 s-2.4 -1.88 -4.8 -1.88 l-2.8 0 l0 4.4 l6.8 0 c2.4 0 4.8 -1.88 4.8 -1.88 l0 8.28 l-21.48 0 z M74.88 40 c0 0 1.8744 -2.3868 1.8744 -4.7732 l0 -18.453 c0 -2.3868 -1.8744 -4.7736 -1.8744 -4.7736 l11.428 0 s-0.31359 1.9612 0.8916 4.7736 l5.1544 12.026 l0 -12.026 c0 -2.3868 -1.8744 -4.7736 -1.8744 -4.7736 l10.948 0 s-1.874 2.3868 -1.874 4.7736 l0 18.453 c0 2.3864 1.874 4.7732 1.874 4.7732 l-11.428 0 s0.26762 -1.9664 -0.9916 -4.768 l-5.054 -11.232 l0 11.227 c0 2.3864 1.874 4.7732 1.874 4.7732 l-10.948 0 z M102.48 40 c0 0 1.84 -2.4 1.84 -4.76 l0 -18.48 c0 -2.36 -1.84 -4.76 -1.84 -4.76 l12.08 0 c7.32 0 14.04 3.44 14.04 14 c0 9.04 -5.92 14 -13.24 14 l-12.88 0 z M112.32000000000001 34.28 l1.32 0 c3.72 0 6.72 -2.92 6.72 -8.28 c0 -6.24 -2.6 -8.28 -6.32 -8.28 l-1.72 0 l0 16.56 z M137.44 40 c0 0 1.874 -2.3868 1.874 -4.7732 l0 -6.8068 l-6.2736 -11.654 c-1.704 -3.1604 -4.0404 -4.7664 -4.0404 -4.7664 l11.348 0 s-0.7392 1.7648 0.514 4.7736 l0 0 l2.4516 5.8868 l2.452 -5.8868 l0 0 c1.2532 -3.0088 0.514 -4.7736 0.514 -4.7736 l11.348 0 s-2.3364 1.606 -4.04 4.766 l-6.2744 11.654 l0 6.8068 c0 2.3864 1.8744 4.7732 1.8744 4.7732 l-11.748 0 z M157.76000000000002 40 c0 0 1.88 -2.36 1.88 -4.76 l0 -18.44 c0 -2.4 -1.88 -4.8 -1.88 -4.8 l21.48 0 l0 8.28 s-2.4 -1.88 -4.8 -1.88 l-6.8 0 l0 5.2 l2.8 0 c2.4 0 4.8 -1.88 4.8 -1.88 l0 9.36 s-2.4 -1.88 -4.8 -1.88 l-2.8 0 l0 4.4 l6.8 0 c2.4 0 4.8 -1.88 4.8 -1.88 l0 8.28 l-21.48 0 z"></path></g></svg>
